<svg xmlns="http://www.w3.org/2000/svg" xmlns:xlink="http://www.w3.org/1999/xlink" viewBox="0 0 184.52 35.84"><defs><style>.cls-1{fill:#12191f;}.cls-2{fill:#93a2ad;}.cls-3{fill:url(#New_Gradient_Swatch_1);}.cls-4{fill:url(#New_Gradient_Swatch_1-2);}.cls-5{fill:url(#New_Gradient_Swatch_1-3);}.cls-6{fill:url(#New_Gradient_Swatch_1-4);}</style><linearGradient id="New_Gradient_Swatch_1" x1="6.28" y1="-716.25" x2="29.53" y2="-716.25" gradientTransform="matrix(1, 0, 0, -1, 0, -696.43)" gradientUnits="userSpaceOnUse"><stop offset="0" stop-color="#789df4"/><stop offset="1" stop-color="#d694f9"/></linearGradient><linearGradient id="New_Gradient_Swatch_1-2" x1="0" y1="-714.35" x2="35.84" y2="-714.35" xlink:href="#New_Gradient_Swatch_1"/><linearGradient id="New_Gradient_Swatch_1-3" x1="22.67" y1="27.08" x2="40.46" y2="27.08" gradientTransform="matrix(1, 0, 0, 1, 0, 0)" xlink:href="#New_Gradient_Swatch_1"/><linearGradient id="New_Gradient_Swatch_1-4" x1="27.81" y1="27.26" x2="35.46" y2="27.26" gradientTransform="matrix(1, 0, 0, 1, 0, 0)" xlink:href="#New_Gradient_Swatch_1"/></defs><g id="Layer_2" data-name="Layer 2"><g id="Layer_1-2" data-name="Layer 1"><rect class="cls-1" x="1.36" y="1.36" width="33.12" height="33.12"/><polygon class="cls-2" points="24.63 4.51 24.71 4.42 11.54 8.14 9.31 16.07 19.81 13.11 24.63 4.51"/><polygon class="cls-2" points="16.47 25.86 14.47 31.82 21.14 24.45 16.47 25.86"/><polygon class="cls-3" points="8.53 18.94 29.53 12.79 23.8 21.58 6.28 26.84 8.53 18.94"/><path class="cls-4" d="M34.48,1.36V34.48H1.36V1.36H34.48m0-1.36H1.36A1.36,1.36,0,0,0,0,1.36H0V34.48a1.36,1.36,0,0,0,1.36,1.36H34.48a1.36,1.36,0,0,0,1.36-1.36h0V1.36A1.36,1.36,0,0,0,34.48,0Z"/><path class="cls-5" d="M28.13,32.54a5.46,5.46,0,1,1,0-10.91H35a5.46,5.46,0,0,1,0,10.91Z"/><rect class="cls-1" x="23.86" y="22.82" width="15.42" height="8.54" rx="4.27"/><path class="cls-6" d="M27.81,25.47h1.05l.85,1.39.85-1.39h1.05v3.58h-1V27l-.92,1.4h0L28.78,27v2.05h-1Zm7.59,0-1.17,1.74,1.23,1.84H34.32L33.63,28l-.69,1.09H31.83l1.23-1.82-1.18-1.76H33l.63,1,.64-1Z"/><path d="M45,11h2.87v6.81h7.82V11h2.87V27.34H55.67v-6.9H47.85v6.9H45Z"/><path d="M61.52,19.2v-.05A8.29,8.29,0,0,1,70,10.68a8.56,8.56,0,0,1,6.41,2.55l-1.85,2.13a6.53,6.53,0,0,0-4.58-2,5.51,5.51,0,0,0-5.4,5.78v0a5.51,5.51,0,0,0,5.4,5.8,6.38,6.38,0,0,0,4.7-2.1l1.85,1.87a8.44,8.44,0,0,1-6.64,2.9A8.23,8.23,0,0,1,61.52,19.2Z"/><path d="M78.84,11h2.88V24.72h8.61v2.62H78.84Z"/><path d="M97.82,11H101l4.93,12.59L110.85,11H114l-6.79,16.5h-2.55Z"/><path d="M113.7,21.23v0a6.58,6.58,0,0,1,13.16-.05v.05a6.45,6.45,0,0,1-6.62,6.43A6.39,6.39,0,0,1,113.7,21.23Zm10.33,0v0a3.81,3.81,0,0,0-3.79-4,3.71,3.71,0,0,0-3.71,3.93v.05a3.8,3.8,0,0,0,3.76,3.95A3.71,3.71,0,0,0,124,21.23Z"/><path d="M129.22,10.26h2.83V27.34h-2.83Z"/><path d="M135.64,23.92v-6.5h-1.56V15h1.56V11.6h2.83V15h3.32v2.43h-3.32v6.06A1.34,1.34,0,0,0,140,25a3.81,3.81,0,0,0,1.76-.42v2.32a4.88,4.88,0,0,1-2.55.63C137.12,27.55,135.64,26.64,135.64,23.92Z"/><path d="M150.9,11H154l5,7.75,5-7.75H167V27.34h-2.87V15.6L159,23.32h-.1l-5.12-7.68v11.7H150.9Z"/><path d="M184.29,11l-5.71,8,5.94,8.38h-3.39l-4.33-6.25-4.3,6.25h-3.3L175.12,19l-5.69-8h3.39l4.08,5.95L181,11Z"/></g></g></svg>